# xmcd
#
# Track frame offsets:
#	183
#	98958
#	116975
#	125103
#	135480
#	145393
#	155480
#	170073
#	179043
#	182108
#	186903
#	193043
#	196360
#	203240
#
# Disc length: 2746 seconds
#
# Revision: 0
# Processed by: cddbd v1.4PL0 Copyright (c) Steve Scherf et al.
# Submitted via: dBpowerAMP V4.0
#
DISCID=e30ab80e
DTITLE=Jan Erik Vold - Briskeby Blues
DYEAR=1969
DGENRE=Blues
TTITLE0=Bo På Briskeby Blues
TTITLE1=Tang
TTITLE2=Å Møte En Gammel Kjenning Noen År Senere
TTITLE3=Uplift Blues
TTITLE4=Desemberlys (Stumfilm I Wergelandsveien)
TTITLE5=Sommerdrømmen
TTITLE6=Funny
TTITLE7=Tale For Loffen
TTITLE8=Min Nye Blå Dyne
TTITLE9=Kropper
TTITLE10=Amper Juli Blues
TTITLE11=Ikke Alle Kjærtegn
TTITLE12=Ikke Si Det. Jeg Vet
TTITLE13=Han Var Her
EXTD=
EXTT0=
EXTT1=
EXTT2=
EXTT3=
EXTT4=
EXTT5=
EXTT6=
EXTT7=
EXTT8=
EXTT9=
EXTT10=
EXTT11=
EXTT12=
EXTT13=
PLAYORDER=
